<?xml version="1.0" encoding="utf-8"?>
<!-- Generator: Adobe Illustrator 16.0.0, SVG Export Plug-In . SVG Version: 6.00 Build 0)  -->
<!DOCTYPE svg PUBLIC "-//W3C//DTD SVG 1.1//EN" "http://www.w3.org/Graphics/SVG/1.1/DTD/svg11.dtd">
<svg version="1.1" id="Layer_1" focusable="false" xmlns="http://www.w3.org/2000/svg" xmlns:xlink="http://www.w3.org/1999/xlink"
	 x="0px" y="0px" width="595.281px" height="841.891px" viewBox="0 0 595.281 841.891" enable-background="new 0 0 595.281 841.891"
	 xml:space="preserve">
<path fill="#7898FF" d="M531.5,165.825h-63.78V96.73c0-8.806-7.139-15.945-15.944-15.945h-53.15
	c-8.805,0-15.945,7.139-15.945,15.945v69.095H212.6V96.73c0-8.806-7.139-15.945-15.945-15.945h-53.15
	c-8.806,0-15.945,7.139-15.945,15.945v69.095H63.78C28.555,165.825,0,194.38,0,229.605v467.72c0,35.226,28.555,63.78,63.78,63.78
	H531.5c35.227,0,63.781-28.556,63.781-63.78v-467.72C595.281,194.38,566.726,165.825,531.5,165.825z M523.527,697.325H71.752
	c-4.403,0-7.972-3.569-7.972-7.974V293.385H531.5v395.969C531.5,693.756,527.931,697.325,523.527,697.325z M453.304,430.711
	L264.211,618.29c-6.252,6.201-16.348,6.161-22.55-0.091l-99.777-100.585c-6.201-6.252-6.161-16.349,0.09-22.55l30.188-29.945
	c6.252-6.201,16.348-6.161,22.549,0.092l58.604,59.078l147.587-146.403c6.252-6.202,16.348-6.162,22.549,0.09l29.945,30.187
	C459.597,414.414,459.556,424.51,453.304,430.711L453.304,430.711z"/>
</svg>
